<svg width="500" height="500" viewBox="0 0 500 500" fill="none" xmlns="http://www.w3.org/2000/svg">
<path d="M491.962 329.306H343.773V172.124H491.962C496.401 172.124 499.999 168.5 499.999 164.028C499.999 159.555 496.4 155.93 491.961 155.93H343.773V8.09745C343.773 3.6245 340.174 0 335.735 0C331.296 0 327.697 3.6245 327.697 8.09745V155.93H171.67V8.09745C171.67 3.6245 168.071 0 163.632 0C159.193 0 155.594 3.6245 155.594 8.09745V155.93H8.0379C3.59889 155.93 0 159.555 0 164.028C0 168.501 3.59889 172.125 8.0379 172.125H155.594V329.307H8.0379C3.59889 329.307 0 332.932 0 337.405C0 341.878 3.59889 345.502 8.0379 345.502H155.594V491.903C155.594 496.375 159.193 500 163.632 500C168.071 500 171.67 496.375 171.67 491.903V345.501H226.577C231.016 345.501 234.615 341.877 234.615 337.404C234.615 332.931 231.016 329.306 226.577 329.306H171.67V172.124H327.697V329.306H223.347C218.908 329.306 215.309 332.931 215.309 337.404C215.309 341.877 218.908 345.501 223.347 345.501H327.697V491.901C327.697 496.374 331.296 499.999 335.735 499.999C340.174 499.999 343.773 496.374 343.773 491.901V345.501H491.962C496.401 345.501 500 341.877 500 337.404C500 332.931 496.401 329.306 491.962 329.306Z" fill="black"/>
</svg>
