<svg width="82" height="82" viewBox="0 0 82 82" fill="none" xmlns="http://www.w3.org/2000/svg">
<path d="M2.41849 2.53732C4.78333 0.172478 8.6175 0.172476 10.9823 2.53732L79.4931 71.0481C81.858 73.4129 81.858 77.2471 79.4931 79.612C77.1283 81.9768 73.2941 81.9768 70.9293 79.612L2.4185 11.1012C0.0536538 8.73633 0.0536504 4.90216 2.41849 2.53732Z" fill="#D0250D"/>
<path d="M79.4931 2.53732C81.858 4.90216 81.858 8.73632 79.4931 11.1012L10.9823 79.6119C8.61749 81.9768 4.78333 81.9768 2.41849 79.612C0.0536451 77.2471 0.0536449 73.4129 2.41849 71.0481L70.9293 2.53732C73.2941 0.172478 77.1283 0.172478 79.4931 2.53732Z" fill="#D0250D"/>
</svg>
